<svg height="410pt" viewBox="0 0 410 410" width="410pt" xmlns="http://www.w3.org/2000/svg"><path d="m410 205c0 113.21875-91.78125 205-205 205s-205-91.78125-205-205 91.78125-205 205-205 205 91.78125 205 205zm0 0" fill="#e48e66"/><path d="m0 205c0 113.199219 91.800781 205 205 205v-410c-113.199219 0-205 91.800781-205 205zm0 0" fill="#d18162"/><path d="m335 195h-200.5l75.5-75.5c3.894531-3.894531 3.894531-10.207031 0-14.101562-3.894531-3.890626-10.207031-3.890626-14.101562 0l-99.699219 99.601562 99.601562 99.601562c1.875 1.886719 4.4375 2.933594 7.097657 2.898438 2.65625-.011719 5.199218-1.050781 7.101562-2.898438 1.871094-1.871093 2.925781-4.40625 2.925781-7.050781s-1.054687-5.183593-2.925781-7.050781l-75.5-75.5h200.5c5.523438 0 10-4.476562 10-10s-4.476562-10-10-10zm0 0" fill="#f8ec7d"/></svg>